<mxfile>
    <diagram id="xZaV93bSzTCuTh7gANKU" name="Page-1">
        <mxGraphModel dx="501" dy="459" grid="1" gridSize="10" guides="1" tooltips="1" connect="1" arrows="1" fold="1" page="1" pageScale="1" pageWidth="850" pageHeight="1100" math="0" shadow="0">
            <root>
                <mxCell id="0"/>
                <mxCell id="1" parent="0"/>
                <mxCell id="YBeeIcRdMzsMXzo5rkN2-5" style="edgeStyle=orthogonalEdgeStyle;rounded=0;orthogonalLoop=1;jettySize=auto;html=1;" parent="1" source="YBeeIcRdMzsMXzo5rkN2-2" target="YBeeIcRdMzsMXzo5rkN2-4" edge="1">
                    <mxGeometry relative="1" as="geometry"/>
                </mxCell>
                <mxCell id="YBeeIcRdMzsMXzo5rkN2-2" value="Frontend" style="rounded=0;whiteSpace=wrap;html=1;fillColor=#d5e8d4;strokeColor=#82b366;glass=0;shadow=0;" parent="1" vertex="1">
                    <mxGeometry x="160" y="150" width="120" height="60" as="geometry"/>
                </mxCell>
                <mxCell id="YBeeIcRdMzsMXzo5rkN2-6" style="edgeStyle=orthogonalEdgeStyle;rounded=0;orthogonalLoop=1;jettySize=auto;html=1;" parent="1" source="YBeeIcRdMzsMXzo5rkN2-3" target="YBeeIcRdMzsMXzo5rkN2-4" edge="1">
                    <mxGeometry relative="1" as="geometry"/>
                </mxCell>
                <mxCell id="YBeeIcRdMzsMXzo5rkN2-3" value="Admin Panel" style="rounded=0;whiteSpace=wrap;html=1;fillColor=#f8cecc;strokeColor=#b85450;" parent="1" vertex="1">
                    <mxGeometry x="470" y="150" width="120" height="60" as="geometry"/>
                </mxCell>
                <mxCell id="YBeeIcRdMzsMXzo5rkN2-4" value="&lt;br&gt;Shared User database.&lt;br&gt;&lt;br&gt;Non admin users should be able to login as well. They'll login to see their data, donations, etc." style="text;html=1;fillColor=#ffe6cc;align=center;verticalAlign=middle;whiteSpace=wrap;rounded=0;strokeColor=#d79b00;" parent="1" vertex="1">
                    <mxGeometry x="180" y="260" width="420" height="90" as="geometry"/>
                </mxCell>
                <mxCell id="2" value="" style="whiteSpace=wrap;html=1;" vertex="1" parent="1">
                    <mxGeometry x="200" y="210" width="120" height="60" as="geometry"/>
                </mxCell>
            </root>
        </mxGraphModel>
    </diagram>
</mxfile>
